PathFileType	4	(X/Y/Z)	C:/Users/beibeiliu/ov580/test_trc\sequence.40_training_dense_right.trc
DataRate	CameraRate	NumFrames	NumMarkers	Units	OrigDataRate	OrigDataStartFrame	OrigNumFrames
120	120	24	19	mm	120	251	400
Frame#	Time	ThumbCMC			ThumbMCP			ThumbIP			ThumbTip			IndexMCP			IndexPIP			IndexTip			MiddleMCP			MiddlePIP			MiddleTip			RingMCP			RingPIP			RingTip			PinkyMCP			PinkyPIP			PinkyTip			BackHand1			BackHand2			BackHand3	
		X0	Y0	Z0	X1	Y1	Z1	X2	Y2	Z2	X3	Y3	Z3	X4	Y4	Z4	X5	Y5	Z5	X6	Y6	Z6	X7	Y7	Z7	X8	Y8	Z8	X9	Y9	Z9	X10	Y10	Z10	X11	Y11	Z11	X12	Y12	Z12	X13	Y13	Z13	X14	Y14	Z14	X15	Y15	Z15	X16	Y16	Z16	X17	Y17	Z17	X18	Y18	Z18	
250	2.08333	245.897	31.8592	58.956	230.235	26.7943	31.6708	230.1	16.2221	7.79662	232.936	-1.11068	-6.55664	279.223	26.2215	4.1104	271.306	15.7425	-14.3779	249.563	7.28241	-26.0085	288.108	4.35392	7.49996	274.469	-6.30358	-17.3119	245.683	-15.4813	-20.9617	294.65	-14.0431	20.0306	289.806	-20.4339	-6.27721	267.381	-24.5604	-23.1875	294.113	-28.4723	34.4097	299.124	-36.3953	12.8991	291.857	-39.735	-7.44226	286.327	-1.41883	66.9265	277.138	0.680681	87.6254	278.215	24.0994	67.8872	
251	2.09167	249.033	33.5184	60.5277	235.499	26.2106	34.4373	232.364	16.943	12.3629	233.251	0.102694	-8.54101	283.451	24.1203	9.62106	271.321	16.9985	-16.6697	248.836	3.3104	-27.7727	289.743	2.87313	8.12358	274.481	-7.89768	-17.2655	247.166	-13.3943	-23.4216	294.099	-16.0579	18.2037	288.419	-25.7364	-6.21263	265.755	-25.3308	-21.5628	292.954	-34.2547	35.6091	295.687	-39.6319	13.3651	291.41	-42.776	-8.37941	289.244	-5.27369	64.834	278.819	-5.9905	88.0171	281.065	19.8082	68.5825	
252	2.1	253.047	31.6503	60.7576	239.682	27.7914	30.419	234.858	17.8114	10.373	232.591	2.71583	-3.81459	288.697	14.8205	9.45894	275.304	11.046	-16.1903	251.376	6.28197	-29.7348	290.897	-3.71116	7.4409	278.01	-12.329	-16.0405	244.599	-13.5703	-22.6128	292.353	-21.3387	18.1069	286.056	-29.0678	-6.78736	263.421	-27.1446	-22.3006	289.9	-34.5501	33.4755	292.173	-46.1555	14.7121	286.802	-50.0066	-6.48177	289.064	-12.9678	66.7693	279.481	-10.0284	89.9444	284.837	13.8708	70.6093	
253	2.10833	259.231	31.3354	59.215	242.947	28.488	35.5779	237.178	20.0124	7.92009	231.995	6.73218	-8.53546	290.446	16.2351	7.98899	277.831	12.2705	-16.017	257.609	9.66175	-28.5194	291.477	-4.89636	7.22595	275.264	-13.467	-18.6385	245.903	-11.0191	-25.2987	291.517	-26.7271	16.7659	283.413	-29.1151	-6.23045	262.054	-25.8979	-22.5147	285.483	-41.2131	34.2781	288.698	-47.3549	15.4556	283.357	-52.0598	-6.93097	287.286	-16.4937	64.0355	281.555	-8.67254	89.4239	287.984	10.6693	71.5446	
254	2.11667	261.529	29.6171	62.9973	246.189	28.1262	34.9616	240.793	21.3381	12.5155	236.036	6.05515	-4.67824	291.637	10.634	5.35041	279.745	8.64172	-13.8529	254.423	10.8254	-30.7125	291.949	-7.57349	8.00406	276.176	-12.5942	-18.5401	244.792	-10.3058	-24.8117	289.593	-27.9081	16.3937	281.077	-29.9753	-8.95866	258.777	-25.1347	-23.0619	283.103	-44.8952	34.6315	285.158	-47.6301	10.4697	278.29	-50.4237	-6.73534	286.464	-20.0591	67.2571	282.29	-10.2537	87.075	288.714	10.8553	71.9417	
255	2.125	264.398	32.2595	64.3542	249.953	30.8861	32.5843	241.629	26.5592	10.2787	235.099	12.6323	-8.86303	293.358	10.7099	9.52072	280.571	9.91466	-15.9444	256.132	10.6499	-31.1058	291.345	-10.9782	6.08401	276.012	-14.0801	-17.8108	249.34	-9.60468	-25.2027	286.588	-28.4968	18.9789	276.916	-31.8818	-10.7182	259.448	-24.7306	-22.132	279.528	-45.7292	35.2558	280.384	-51.7304	13.2093	275.89	-52.186	-5.90185	285.895	-20.24	63.3806	280.407	-12.187	90.7121	290.292	10.1523	69.5503	
256	2.13333	269.652	29.2999	61.1332	252.383	30.7417	34.7206	245.5	26.7643	12.4221	238.18	17.5176	-3.34592	292.769	6.32313	7.38585	282.765	8.58499	-14.9429	259.766	10.7576	-29.5083	289.788	-15.2039	9.16144	274.123	-15.9337	-17.5272	246.45	-5.47479	-26.4436	286.207	-28.1043	13.9792	274.528	-34.4511	-7.41045	258.069	-24.7435	-22.9946	276.927	-46.7017	32.8479	276.669	-51.1265	11.7528	272.276	-55.1426	-4.33021	285.756	-19.0274	64.3164	282.713	-13.5515	88.0203	292.287	4.14998	73.0699	
257	2.14167	272.38	32.7172	64.3945	255.824	31.673	37.6685	246.625	31.9836	15.559	239.593	21.8265	-4.01814	293.628	7.62159	6.05673	277.937	5.00422	-16.6161	259.699	11.2436	-29.1747	289.59	-13.3818	5.92348	273.743	-13.9782	-17.2347	244.851	-4.2207	-25.8636	283.034	-29.6574	15.6822	271.534	-32.9255	-9.03544	256.218	-22.8524	-23.4005	271.076	-44.959	33.9114	271.091	-52.3078	15.6901	265.568	-56.2397	-7.43188	283.016	-22.978	61.6783	281.325	-17.0139	87.89	292.297	2.898	72.2957	
258	2.15	273.845	30.4115	65.6247	258.412	36.9186	34.767	249.72	33.4386	15.0833	239.854	26.1902	-5.4069	293.671	2.51214	8.5151	278.262	4.47921	-16.8856	260.721	9.96045	-27.3036	285.087	-18.0927	7.29021	270.039	-12.0278	-20.317	243.023	-1.22555	-25.6003	277.801	-35.2866	14.7995	269.143	-33.2271	-10.0436	250.188	-21.5434	-24.2507	267.002	-41.2891	35.615	264.906	-54.4476	14.381	262.491	-53.8795	-7.77188	282.848	-23.2305	63.87	277.611	-20.3944	86.9959	295.217	1.60122	70.5171	
259	2.15833	277.477	30.1758	64.6888	261.278	33.8277	36.7128	253.366	33.6372	15.832	242.977	29.9423	-2.78223	294.678	3.79492	5.36202	280.412	6.53038	-16.2717	259.548	15.5533	-29.899	282.925	-19.4572	3.89541	270.453	-11.4785	-19.3691	243.905	-3.31623	-25.8377	278.144	-31.1466	17.1376	267.936	-33.529	-6.24734	252.857	-19.9584	-22.8648	264.462	-45.8027	33.7701	262.061	-52.9157	11.1868	259.021	-54.3261	-6.37771	280.54	-27.0193	61.4018	274.96	-20.2539	89.3467	294.371	2.48735	71.7741	
260	2.16667	278.577	31.1194	65.9319	263.847	36.2931	40.4884	256.461	37.7163	15.6807	245.958	33.8742	-5.61064	292.367	-0.566069	5.66221	280.374	2.4964	-14.6789	259.044	16.0288	-28.3211	283.714	-18.447	8.56913	269.907	-14.601	-18.5195	244.673	0.555618	-26.2112	275.686	-31.745	15.6126	266.404	-31.2924	-9.63856	249.184	-18.3905	-23.6208	261.763	-45.6197	32.6239	258.594	-51.7548	13.9411	252.929	-52.4159	-6.04979	276.616	-25.2294	64.468	275.747	-18.6452	88.7029	294.463	-3.33357	68.5807	
261	2.175	279.32	27.8882	67.6371	266.108	35.2427	36.7839	258.607	33.1769	13.1055	249.072	27.6124	-4.47847	293.364	0.105672	7.78042	284.024	6.32777	-14.6024	260.475	15.24	-26.4829	284.446	-18.103	5.33389	267.207	-15.1821	-17.4526	243.229	4.00975	-25.9286	273.723	-33.7171	14.9142	263.565	-33.5993	-6.77238	247.477	-15.896	-23.3232	259.688	-41.0204	35.6633	255.546	-51.706	13.9005	251.459	-48.4178	-9.83838	277.412	-26.5727	62.8846	276.639	-17.1325	87.8588	292.928	-2.09581	70.6603	
262	2.18333	281.841	26.8757	64.4177	267.199	36.4427	40.6613	261.659	37.6486	16.0438	251.972	31.5866	-3.7979	292.971	-1.1112	5.65316	279.478	2.30052	-13.2554	259.465	14.2496	-25.7616	280.944	-21.4163	6.86292	265.73	-14.5404	-18.7847	244.276	1.83316	-24.4102	272.092	-33.8634	17.9562	262.569	-30.7519	-8.74587	244.859	-17.6397	-22.8556	257.731	-43.1148	33.7754	254.886	-50.7572	14.5757	248.577	-50.4555	-4.68431	273.721	-28.2167	66.4448	275.809	-22.1419	89.2586	294.307	-6.73255	69.2131	
263	2.19167	282.841	25.0899	63.1183	270.049	34.2587	37.7647	263.311	32.4971	12.1262	254.685	31.3244	-5.74555	294.428	-2.26798	6.14511	281.973	5.47892	-15.3915	263.552	16.0067	-24.4013	281.488	-22.1733	8.9154	268.592	-16.1677	-16.1688	247.017	5.08815	-25.8998	272.259	-34.7313	16.6518	260.145	-34.3586	-7.6344	245.857	-19.9404	-21.4557	256.541	-43.5599	35.5348	252.827	-50.1779	13.7951	249.256	-50.6416	-6.30368	275.775	-27.4306	65.278	275.999	-21.5186	89.7986	292.726	-4.87907	71.6744	
264	2.2	284.268	28.5794	66.7997	271.085	33.9106	39.6754	264.894	32.434	11.7593	255.357	28.4485	-3.27354	293.601	-3.85205	5.80248	282.685	4.83743	-13.4571	260.98	15.3107	-21.7651	281.617	-22.9622	7.29419	267.351	-16.7161	-17.4528	244.48	4.79774	-24.9668	270.216	-36.6077	18.3344	262.932	-31.5708	-8.57216	244.447	-16.9273	-23.1667	258.395	-42.401	34.4179	254.452	-50.6419	13.1691	248.676	-47.8542	-9.80849	273.692	-29.3954	66.2817	276.075	-20.7492	86.7986	293.518	-5.68089	71.4737	
265	2.20833	284	22.721	64.3551	272.807	32.5914	36.3307	266.772	32.7044	10.9773	256.824	28.7759	-8.53919	293.432	-5.88387	7.88316	280.938	2.55482	-13.4758	258.906	18.2288	-21.1728	282.816	-23.4425	4.56725	269.168	-16.2801	-16.5456	245.056	1.47382	-23.3375	271.573	-35.363	15.8777	259.87	-33.7775	-10.0914	249.224	-19.7342	-21.5272	256.417	-46.999	33.6066	255.036	-51.0558	16.1102	245.202	-49.3168	-7.05783	274.571	-30.4581	61.1427	275.873	-21.3317	90.8469	295.396	-6.79646	71.0241	
266	2.21667	285.381	25.1569	63.3522	272.491	31.5814	38.6366	267.502	29.7243	15.779	257.873	29.0638	-8.36909	293.767	-6.80644	11.2807	278.596	4.41036	-14.3139	257.73	16.5704	-18.9005	281.283	-24.4403	5.61051	268.32	-16.1964	-18.1514	248.538	3.46623	-25.0243	273.356	-35.0146	16.2459	260.139	-36.1303	-5.40367	247.05	-18.7899	-22.1266	258.606	-42.6835	36.1072	251.189	-53.4909	15.5681	249.408	-49.7316	-8.60258	275.656	-30.8743	64.3344	274.486	-22.9408	86.2293	291.978	-7.86589	72.0913	
267	2.225	282.848	22.4014	68.2727	273.798	30.2974	37.8406	268.356	30.4386	14.967	259.257	26.9872	-5.04876	295.993	-2.75425	9.19296	278.503	0.352963	-11.6071	253.812	17.9433	-18.2759	283.807	-22.7341	6.15188	267.356	-17.1746	-16.775	247.269	1.1783	-24.4879	272.356	-37.2896	16.501	263.29	-32.4155	-8.4694	247.948	-16.1678	-23.507	258.094	-43.7747	35.1899	252.576	-53.2342	16.3484	247.104	-49.8555	-8.62585	275.959	-32.2105	62.0927	276.09	-24.7004	87.7836	294.413	-8.75763	68.8522	
268	2.23333	284.755	25.3292	68.5122	274.305	33.8498	36.0577	268.313	31.8276	17.3437	260.5	27.7552	-8.20026	293.013	-6.89963	6.35528	279.217	4.62674	-13.8951	257.991	18.4603	-18.5679	282.511	-24.3991	6.90481	271.365	-16.9121	-16.4274	243.429	0.794608	-23.5521	273.863	-37.1104	15.5667	264.132	-32.791	-8.78854	250.213	-17.8887	-21.9628	257.088	-46.0451	35.7434	253.557	-53.3819	12.0961	245.599	-52.7386	-8.27715	276.475	-30.1904	61.7186	272.541	-23.6122	89.6119	294.325	-5.87984	73.6668	
269	2.24167	283.149	21.7835	66.1559	274.733	31.2969	37.5604	268.622	32.1461	14.9799	260.263	27.9115	-5.90733	295.862	-3.85258	8.45323	277.277	1.75683	-13.7508	257.867	14.5074	-17.9704	285.38	-22.4511	9.20749	267.517	-18.9605	-17.7975	243.923	-0.151467	-24.4405	272.099	-37.722	20.1518	265.147	-35.4819	-5.7125	251.544	-20.8671	-20.8278	255.647	-47.4935	36.0095	252.767	-52.9734	14.1373	245.131	-51.5487	-6.64029	277.352	-30.5801	63.0824	276.331	-23.886	87.2307	295.477	-6.61867	71.9693	
270	2.25	286.689	25.8113	65.6759	275.282	35.2554	38.7691	268.647	31.1779	18.5109	260.352	25.3492	-3.02607	294.042	-7.06505	9.3386	276.828	0.485245	-12.7859	258.399	14.6881	-18.4265	286.012	-23.0432	8.32194	270.677	-20.2876	-16.1261	248.682	2.73677	-26.4355	272.487	-37.5522	18.0991	264.337	-33.3807	-9.14715	249.682	-18.6682	-23.4605	256.928	-45.8517	37.3975	252.348	-53.2511	16.7979	249.434	-49.1221	-5.7824	275.692	-27.608	66.3409	277.732	-21.0339	91.1794	295.293	-8.04579	75.37	
271	2.25833	285.373	25.8812	66.8578	274.875	35.0164	37.5572	269.202	34.2325	15.7086	261.536	25.102	-5.0621	294.963	-4.8856	10.2406	279.896	1.66258	-12.4293	255.139	16.9378	-18.0592	285.234	-23.6364	9.49591	270.99	-21.589	-15.9085	249.284	-2.79327	-25.1164	273.168	-36.9508	20.555	261.859	-37.11	-6.79775	251.051	-21.6111	-22.2418	258.813	-44.3652	36.373	252.723	-53.2233	13.473	250.561	-51.6569	-6.01967	279.447	-29.5921	63.1933	272.775	-22.7784	92.1147	296.844	-7.17715	74.0765	
272	2.26667	285.379	23.4626	64.5395	274.56	30.4224	37.825	269.588	28.384	14.7251	261.421	26.6521	-3.315	296.577	-4.03854	11.1566	279.47	-0.29071	-11.8551	260.657	15.6386	-19.1056	282.92	-27.3917	8.19422	270.02	-20.5571	-17.1656	247.074	1.19502	-25.7834	274.226	-35.8448	20.9284	261.945	-37.2337	-8.19105	252.046	-21.9425	-21.061	256.756	-47.0162	33.7212	251.364	-53.7416	13.5689	245.577	-51.5631	-7.13664	276.79	-27.9173	63.699	276.264	-23.9476	89.6867	292.63	-10.7404	74.1359	
273	2.275	286.054	24.4216	67.1599	275.028	28.7232	37.0891	269.087	33.091	16.3842	261.799	28.8287	-6.2464	295.835	-6.17068	11.3578	282.012	1.28357	-11.5426	259.911	15.6177	-17.6448	283.155	-26.9769	10.8636	269.491	-19.3912	-17.9022	250.501	-1.76671	-26.08	271.05	-38.0403	17.8406	261.776	-36.0595	-6.66911	251.465	-18.0645	-23.1358	254.852	-45.6236	36.8504	254.929	-51.5256	15.9702	248.271	-52.2119	-3.76771	278.069	-27.0759	67.4482	274.992	-21.951	87.2742	294.233	-10.6139	70.2983	
